<?xml version="1.0" encoding="UTF-8" standalone="no"?>
<!DOCTYPE svg PUBLIC "-//W3C//DTD SVG 1.1//EN" "http://www.w3.org/Graphics/SVG/1.1/DTD/svg11.dtd">
<!-- Created with Vectornator (http://vectornator.io/) -->
<svg height="100%" stroke-miterlimit="10" style="fill-rule:nonzero;clip-rule:evenodd;stroke-linecap:round;stroke-linejoin:round;" version="1.1" viewBox="0 0 53.1562 90.0113" width="100%" xml:space="preserve" xmlns="http://www.w3.org/2000/svg" xmlns:vectornator="http://vectornator.io" xmlns:xlink="http://www.w3.org/1999/xlink">
<defs/>
<clipPath id="ArtboardFrame">
<rect height="90.0113" width="53.1562" x="0" y="0"/>
</clipPath>
<g clip-path="url(#ArtboardFrame)" id="Layer-1" vectornator:layerName="Layer 1">
<path d="M2.344 88.7413C2.987 88.0413 5.054 85.8513 6.936 83.8713L10.359 80.2812L42.879 80.2812L46.299 83.8713C48.179 85.8513 50.249 88.0413 50.889 88.7413L52.059 90.0113L1.175 90.0113L2.344 88.7413Z" fill="#ff0000" fill-rule="nonzero" opacity="1" stroke="none" vectornator:layerName="path"/>
<path d="M0.004 69.8113L0.004 50.3323L2.351 48.1043L4.699 45.8773L5.475 46.5803C5.902 46.9673 7.117 48.1183 8.176 49.1373L10.102 50.9893L10.097 64.8913L10.093 78.8013L6.819 82.2213C5.018 84.1013 2.748 86.4713 1.774 87.4713L0.004 89.3013L0.004 69.8113Z" fill="#ff0000" fill-rule="nonzero" opacity="1" stroke="none" vectornator:layerName="path 1"/>
<path d="M48.144 84.0213L43.134 78.8013L43.134 50.9893L45.054 49.1373C46.114 48.1183 47.334 46.9673 47.754 46.5793L48.534 45.8753L50.894 48.1313L53.244 50.3883L53.194 69.8113L53.144 89.2413L48.144 84.0213Z" fill="#ff0000" fill-rule="nonzero" opacity="0.5" stroke="none" vectornator:layerName="path 2"/>
<path d="M8.344 47.5213L5.643 44.9113L8.314 42.3873L10.985 39.8633L42.25 39.8633L44.93 42.3873L47.6 44.9113L44.89 47.5213L42.19 50.1303L11.045 50.1303L8.344 47.5213Z" fill="#ff0000" fill-rule="nonzero" opacity="1" stroke="none" vectornator:layerName="path 3"/>
<path d="M2.354 41.8463L0 39.5973L0.044 20.3293L0.087 1.06225L5.094 5.84525L10.1 10.6283L10.1 38.9673L7.404 41.5313L4.708 44.0953L2.354 41.8463Z" fill="#ff0000" fill-rule="nonzero" opacity="0.5" stroke="none" vectornator:layerName="path 4"/>
<path d="M45.814 41.5083L43.114 38.9213L43.124 24.7813L43.134 10.6413L46.594 7.33525C48.504 5.51725 50.774 3.33325 51.644 2.48125L53.224 0.93325L53.224 39.6063L50.864 41.8513L48.514 44.0953L45.814 41.5083Z" fill="#ff0000" fill-rule="nonzero" opacity="1" stroke="none" vectornator:layerName="path 5"/>
<path d="M5.934 4.90625L0.85 0.07125L13.676 0.02725C20.731 0.00325 32.325 0.00325 39.442 0.02725L52.376 0.07125L47.296 4.90625L42.216 9.74125L11.018 9.74125L5.934 4.90625Z" fill="#ff0000" fill-rule="nonzero" opacity="1" stroke="none" vectornator:layerName="path 6"/>
</g>
</svg>
