<?xml version="1.0" encoding="UTF-8" standalone="no"?>
<!DOCTYPE svg PUBLIC "-//W3C//DTD SVG 1.1//EN" "http://www.w3.org/Graphics/SVG/1.1/DTD/svg11.dtd">
<!-- Created with Vectornator (http://vectornator.io/) -->
<svg height="100%" stroke-miterlimit="10" style="fill-rule:nonzero;clip-rule:evenodd;stroke-linecap:round;stroke-linejoin:round;" version="1.1" viewBox="0 0 53.1562 90.0113" width="100%" xml:space="preserve" xmlns="http://www.w3.org/2000/svg" xmlns:vectornator="http://vectornator.io" xmlns:xlink="http://www.w3.org/1999/xlink">
<defs/>
<clipPath id="ArtboardFrame">
<rect height="90.0113" width="53.1562" x="0" y="0"/>
</clipPath>
<g clip-path="url(#ArtboardFrame)" id="Layer-1" vectornator:layerName="Layer 1">
<path d="M2.25625 88.732C2.89625 88.032 4.96625 85.842 6.84625 83.862L10.2762 80.272L42.7862 80.272L46.2162 83.862C48.0962 85.842 50.1662 88.032 50.8062 88.732L51.9762 90.002L1.08625 90.002L2.25625 88.732Z" fill="#ff0000" fill-rule="nonzero" opacity="1" stroke="none" vectornator:layerName="path"/>
<path d="M-0.08375 69.802L-0.08375 50.323L2.26625 48.095L4.61625 45.868L5.38625 46.571C5.81625 46.958 7.02625 48.109 8.08625 49.128L10.0163 50.98L10.0063 64.882L10.0063 78.792L6.73625 82.212C4.92625 84.092 2.65625 86.462 1.68625 87.462L-0.08375 89.292L-0.08375 69.802Z" fill="#ff0000" fill-rule="nonzero" opacity="0.5" stroke="none" vectornator:layerName="path 1"/>
<path d="M48.0562 84.012L43.0562 78.792L43.0462 64.882L43.0462 50.98L44.9762 49.128C46.0263 48.109 47.2462 46.958 47.6762 46.57L48.4562 45.866L50.8062 48.122L53.1562 50.379L53.1062 69.802L53.0562 89.232L48.0562 84.012Z" fill="#ff0000" fill-rule="nonzero" opacity="1" stroke="none" vectornator:layerName="path 2"/>
<path d="M8.25625 47.512L5.55625 44.902L8.22625 42.378L10.8963 39.854L42.1662 39.854L44.8363 42.378L47.5063 44.902L44.8063 47.512L42.1063 50.121L10.9563 50.121L8.25625 47.512Z" fill="#ff0000" fill-rule="nonzero" opacity="1" stroke="none" vectornator:layerName="path 3"/>
<path d="M2.26625 41.837L-0.08375 39.588L-0.04375 20.32L0.00625 1.053L5.00625 5.836L10.0163 10.619L10.0163 38.958L7.31625 41.522L4.62625 44.086L2.26625 41.837Z" fill="#ff0000" fill-rule="nonzero" opacity="1" stroke="none" vectornator:layerName="path 4"/>
<path d="M45.7262 41.499L43.0362 38.912L43.0362 24.772L43.0462 10.632L46.5163 7.326C48.4162 5.508 50.6863 3.324 51.5563 2.472L53.1463 0.924L53.1463 39.597L50.7862 41.842L48.4262 44.086L45.7262 41.499Z" fill="#ff0000" fill-rule="nonzero" opacity="0.5" stroke="none" vectornator:layerName="path 5"/>
<path d="M5.84625 4.897L0.76625 0.062L13.5962 0.018C20.6463-0.006 32.2362-0.006 39.3562 0.018L52.2962 0.062L47.2163 4.897L42.1263 9.732L10.9363 9.732L5.84625 4.897Z" fill="#ff0000" fill-rule="nonzero" opacity="1" stroke="none" vectornator:layerName="path 6"/>
</g>
</svg>
